<svg id="visual" viewBox="0 0 900 600" width="900" height="600" xmlns="http://www.w3.org/2000/svg" xmlns:xlink="http://www.w3.org/1999/xlink" version="1.1"><rect x="0" y="0" width="900" height="600" fill="#001220"></rect><defs><linearGradient id="grad1_0" x1="33.3%" y1="0%" x2="100%" y2="100%"><stop offset="20%" stop-color="#1eddb3" stop-opacity="1"></stop><stop offset="80%" stop-color="#1eddb3" stop-opacity="1"></stop></linearGradient></defs><defs><linearGradient id="grad1_1" x1="33.3%" y1="0%" x2="100%" y2="100%"><stop offset="20%" stop-color="#1eddb3" stop-opacity="1"></stop><stop offset="80%" stop-color="#007083" stop-opacity="1"></stop></linearGradient></defs><defs><linearGradient id="grad1_2" x1="33.3%" y1="0%" x2="100%" y2="100%"><stop offset="20%" stop-color="#001220" stop-opacity="1"></stop><stop offset="80%" stop-color="#007083" stop-opacity="1"></stop></linearGradient></defs><defs><linearGradient id="grad2_0" x1="0%" y1="0%" x2="66.7%" y2="100%"><stop offset="20%" stop-color="#1eddb3" stop-opacity="1"></stop><stop offset="80%" stop-color="#1eddb3" stop-opacity="1"></stop></linearGradient></defs><defs><linearGradient id="grad2_1" x1="0%" y1="0%" x2="66.7%" y2="100%"><stop offset="20%" stop-color="#007083" stop-opacity="1"></stop><stop offset="80%" stop-color="#1eddb3" stop-opacity="1"></stop></linearGradient></defs><defs><linearGradient id="grad2_2" x1="0%" y1="0%" x2="66.7%" y2="100%"><stop offset="20%" stop-color="#007083" stop-opacity="1"></stop><stop offset="80%" stop-color="#001220" stop-opacity="1"></stop></linearGradient></defs><g transform="translate(900, 0)"><path d="M0 378.6C-34.4 373.8 -68.7 369 -92.7 345.8C-116.6 322.6 -130.2 280.9 -148.5 257.2C-166.8 233.5 -189.9 227.9 -219.9 219.9C-249.9 211.9 -286.8 201.5 -313.5 181C-340.2 160.5 -356.5 129.8 -365.7 98C-374.8 66.1 -376.7 33.1 -378.6 0L0 0Z" fill="#003e54"></path><path d="M0 252.4C-22.9 249.2 -45.8 246 -61.8 230.5C-77.7 215 -86.8 187.2 -99 171.5C-111.2 155.7 -126.6 151.9 -146.6 146.6C-166.6 141.3 -191.2 134.3 -209 120.7C-226.8 107 -237.7 86.6 -243.8 65.3C-249.9 44.1 -251.1 22 -252.4 0L0 0Z" fill="#00a6a4"></path><path d="M0 126.2C-11.5 124.6 -22.9 123 -30.9 115.3C-38.9 107.5 -43.4 93.6 -49.5 85.7C-55.6 77.8 -63.3 76 -73.3 73.3C-83.3 70.6 -95.6 67.2 -104.5 60.3C-113.4 53.5 -118.8 43.3 -121.9 32.7C-124.9 22 -125.6 11 -126.2 0L0 0Z" fill="#1eddb3"></path></g><g transform="translate(0, 600)"><path d="M0 -378.6C30.2 -366.5 60.3 -354.5 93.7 -349.7C127.1 -344.8 163.6 -347.2 189.3 -327.9C214.9 -308.5 229.7 -267.3 228.4 -228.4C227.1 -189.5 209.9 -152.8 230.4 -133C250.8 -113.2 309 -110.4 340 -91.1C371 -71.8 374.8 -35.9 378.6 0L0 0Z" fill="#003e54"></path><path d="M0 -252.4C20.1 -244.4 40.2 -236.3 62.5 -233.1C84.7 -229.9 109.1 -231.5 126.2 -218.6C143.3 -205.7 153.1 -178.2 152.3 -152.3C151.4 -126.3 139.9 -101.8 153.6 -88.7C167.2 -75.5 206 -73.6 226.7 -60.7C247.3 -47.8 249.9 -23.9 252.4 0L0 0Z" fill="#00a6a4"></path><path d="M0 -126.2C10.1 -122.2 20.1 -118.2 31.2 -116.6C42.4 -114.9 54.5 -115.7 63.1 -109.3C71.6 -102.8 76.6 -89.1 76.1 -76.1C75.7 -63.2 70 -50.9 76.8 -44.3C83.6 -37.7 103 -36.8 113.3 -30.4C123.7 -23.9 124.9 -12 126.2 0L0 0Z" fill="#1eddb3"></path></g></svg>